<?xml version="1.0" encoding="utf-8"?>
<!-- Generator: Adobe Illustrator 27.0.0, SVG Export Plug-In . SVG Version: 6.00 Build 0)  -->
<svg version="1.1" id="Layer_1" xmlns="http://www.w3.org/2000/svg" xmlns:xlink="http://www.w3.org/1999/xlink" x="0px" y="0px"
	 viewBox="0 0 2426.5 731.5" style="enable-background:new 0 0 2426.5 731.5;" xml:space="preserve">
<style type="text/css">
	.st0{fill-rule:evenodd;clip-rule:evenodd;fill:#222766;}
</style>
<g>
	<path class="st0" d="M267.4,7.9L0,727.5h204.5l35.4-102.2h157.3v102.2h200.6V7.9H267.4z M393.3,416.9h-82.6l82.6-173V416.9z
		 M1191.6,0H873.1C766.9,0,731.5,137.6,731.5,137.6l-74.7,428.7c0,0-27.5,161.2,110.1,161.2h298.9l31.5-212.4H936
		c0,0-70.8,15.7-59-62.9c3.9-11.8,31.5-169.1,31.5-169.1s7.9-55.1,43.3-55.1h200.6L1191.6,0L1191.6,0z M1286,3.9l-149.5,723.6h196.6
		l66.8-306.7l15.7,306.7H1522l118-306.7l-59,306.7h177L1903.4,0h-251.7l-121.9,302.8V3.9H1286L1286,3.9z M1856.2,727.5L1993.9,0
		H2399l-31.5,208.5h-212.4l-11.8,70.8h204.5l-31.5,157.3l-208.4-3.9l-11.8,70.8h208.4l-43.3,224.2L1856.2,727.5L1856.2,727.5z
		 M2363.6,715.8c-27.5,0-43.3-19.7-43.3-47.2c0-27.5,15.7-47.2,43.3-47.2c27.5,0,47.2,19.7,47.2,47.2
		C2410.8,696.1,2391.1,715.8,2363.6,715.8z M2363.6,731.5c35.4,0,62.9-31.5,62.9-62.9c0-35.4-27.5-62.9-62.9-62.9
		s-62.9,27.5-62.9,62.9C2300.6,700,2328.2,731.5,2363.6,731.5z M2379.3,672.5c11.8,0,19.7-3.9,19.7-19.7c0-15.7-11.8-19.7-27.5-19.7
		H2340V700h11.8v-27.5h11.8l15.7,27.5h15.7L2379.3,672.5L2379.3,672.5z M2351.8,664.6V645h15.7c7.9,0,15.7,0,15.7,7.9
		c0,7.8-3.9,11.8-11.8,11.8L2351.8,664.6L2351.8,664.6L2351.8,664.6z"/>
</g>
</svg>
