<?xml version="1.0" encoding="utf-8"?>
<!-- Generator: Adobe Illustrator 27.0.0, SVG Export Plug-In . SVG Version: 6.00 Build 0)  -->
<svg version="1.1" id="Layer_1" xmlns="http://www.w3.org/2000/svg" xmlns:xlink="http://www.w3.org/1999/xlink" x="0px" y="0px"
	 viewBox="0 0 490 489.1" style="enable-background:new 0 0 490 489.1;" xml:space="preserve">
<g>
	<path d="M245,87.5c-57.8,0-105,47.2-105,105s47.2,105,105,105s105-47.2,105-105S302.8,87.5,245,87.5z M245,262.5
		c-38.5,0-70-31.5-70-70s31.5-70,70-70s70,31.5,70,70S283.5,262.5,245,262.5z"/>
	<path d="M245,0C109.4,0,0,109.4,0,245c0,66.5,27.1,127.8,70,171.5c10.5,10.5,21.9,20.1,35,28.9c39.4,28,87.5,43.8,140,43.8
		s100.6-16.6,140-43.8c12.2-8.8,23.6-18.4,35-28.9c43.8-44.6,70-105,70-171.5C490,109.4,380.6,0,245,0z M245,455
		c-52.5,0-99.8-19.2-136.5-50.8c9.6-31.5,38.5-54.2,72.6-54.2h128.6c34.1,0,63,22.8,72.6,54.2C344.7,435.8,297.5,455,245,455
		L245,455z M408.6,376.2c-18.4-36.8-56-61.2-98.9-61.2H181.1c-43.8,0-81.4,25.4-98.9,61.2C52.5,340.4,35,294.9,35,245
		c0-115.5,94.5-210,210-210s210,94.5,210,210C455,294.9,437.5,340.4,408.6,376.2L408.6,376.2z"/>
</g>
</svg>
